<?xml version="1.0" encoding="UTF-8" standalone="no"?>
<!-- Created with Inkscape (http://www.inkscape.org/) -->
<svg xmlns:rdf="http://www.w3.org/1999/02/22-rdf-syntax-ns#" xmlns="http://www.w3.org/2000/svg" height="124.08" width="125.03" version="1.1" xmlns:cc="http://creativecommons.org/ns#" xmlns:dc="http://purl.org/dc/elements/1.1/" viewBox="0 0 125.02576 124.07496">
 <metadata>
  <rdf:RDF>
   <cc:Work rdf:about="">
    <dc:format>image/svg+xml</dc:format>
    <dc:type rdf:resource="http://purl.org/dc/dcmitype/StillImage"/>
    <dc:title/>
   </cc:Work>
  </rdf:RDF>
 </metadata>
 <path d="m-0.00020539 0.70739z" stroke="#000" stroke-width="1px" fill="none"/>
 <g transform="translate(-106.84 .000031546)" stroke="#fff" stroke-width="2" fill="#eaba29">
  <path style="image-rendering:auto" d="m108.86 28.018h90v-27h-51c-2.9994 0.37878-5.0059 11.84-9 12-1.0928-0.04114-30 0-30 0z"/>
  <path style="image-rendering:auto" d="m135.86 123.02v-90.002h-27v51c0.37878 2.9994 11.84 5.0059 12 9-0.0411 1.0928 0 30 0 30z"/>
  <path style="image-rendering:auto" d="m230.85 95.99-90 0.084 0.0252 27 51-0.0476c2.999-0.38158 4.9948-11.845 8.9888-12.008 1.0929 0.0401 30-0.028 30-0.028z"/>
  <path style="image-rendering:auto" d="m203.76 1.0149 0.084 90 27-0.0252-0.0476-51c-0.38158-2.999-11.845-4.9948-12.008-8.9888 0.0401-1.0929-0.028-30-0.028-30z"/>
 </g>
</svg>
