<svg height="124.08" viewBox="0 0 125.02576 124.07496" width="125.03" xmlns="http://www.w3.org/2000/svg"><g fill="#eaba29" stroke="#fff" stroke-width="2" transform="translate(-106.84 .000032)"><path d="m108.86 28.018h90v-27h-51c-2.9994.37878-5.0059 11.84-9 12-1.0928-.04114-30 0-30 0z"/><path d="m135.86 123.02v-90.002h-27v51c.37878 2.9994 11.84 5.0059 12 9-.0411 1.0928 0 30 0 30z"/><path d="m230.85 95.99-90 .084.0252 27 51-.0476c2.999-.38158 4.9948-11.845 8.9888-12.008 1.0929.0401 30-.028 30-.028z"/><path d="m203.76 1.0149.084 90 27-.0252-.0476-51c-.38158-2.999-11.845-4.9948-12.008-8.9888.0401-1.0929-.028-30-.028-30z"/></g></svg>