<?xml version="1.0" encoding="UTF-8" standalone="no"?>
<!-- Created with Inkscape (http://www.inkscape.org/) -->
<svg xmlns:rdf="http://www.w3.org/1999/02/22-rdf-syntax-ns#" xmlns="http://www.w3.org/2000/svg" height="155.07" width="124.28" version="1.1" xmlns:cc="http://creativecommons.org/ns#" xmlns:dc="http://purl.org/dc/elements/1.1/" viewBox="0 0 124.27729 155.06714">
 <metadata>
  <rdf:RDF>
   <cc:Work rdf:about="">
    <dc:format>image/svg+xml</dc:format>
    <dc:type rdf:resource="http://purl.org/dc/dcmitype/StillImage"/>
    <dc:title/>
   </cc:Work>
  </rdf:RDF>
 </metadata>
 <path d="m-0.88124 0.70617z" stroke="#000" stroke-width="1px" fill="none"/>
 <g stroke="#333" stroke-width="2" transform="translate(-107.72 -.0011906)" fill="#eaba29">
  <path style="image-rendering:auto" d="m108.86 28.018h90v-27h-51c-2.9994 0.37878-5.0059 11.84-9 12-1.0928-0.04114-30 0-30 0z"/>
  <path style="image-rendering:auto" d="m135.86 123.02v-90.002h-27v51c0.37878 2.9994 11.84 5.0059 12 9-0.0411 1.0928 0 30 0 30z"/>
  <path style="image-rendering:auto" d="m230.85 95.99-90 0.084 0.0252 27 51-0.0476c2.999-0.38158 4.9948-11.845 8.9888-12.008 1.0929 0.0401 30-0.028 30-0.028z"/>
  <path style="image-rendering:auto" d="m203.76 1.0149 0.084 90 27-0.0252-0.0476-51c-0.38158-2.999-11.845-4.9948-12.008-8.9888 0.0401-1.0929-0.028-30-0.028-30z"/>
 </g>
 <g aria-label="Zebnits" style="font-variant-ligatures:normal;font-variant-numeric:normal;font-variant-caps:normal;font-feature-settings:normal" transform="scale(1.0259 .97476)" stroke-width=".99251" fill="#333">
  <path style="font-variant-ligatures:normal;font-variant-numeric:normal;font-variant-caps:normal;font-feature-settings:normal" d="m-0.0000075049 158.61h16.751v-2.4558h-13.672l13.269-22.17v-2.4558h-15.945v2.4558h12.902l-13.305 22.17z"/>
  <path style="font-variant-ligatures:normal;font-variant-numeric:normal;font-variant-caps:normal;font-feature-settings:normal" d="m39.384 149.48c0-2.749-0.36654-4.4351-1.3562-6.1945-1.796-3.1889-5.2782-5.2049-9.0902-5.2049-5.828 0-10.41 4.5818-10.41 10.41 0 5.9379 4.6551 10.593 10.593 10.593 2.5658 0 4.9849-0.953 6.8176-2.6757 1.4295-1.3562 2.3825-2.749 2.9323-4.3985h-2.8224c-1.1363 2.749-3.9586 4.5818-7.0009 4.5818-4.1052 0-7.5874-3.1522-7.8073-7.1109zm-18.07-2.4558c0.73308-3.8487 3.7754-6.4511 7.5874-6.4511 3.8853 0 6.8543 2.4558 7.7706 6.4511z"/>
  <path style="font-variant-ligatures:normal;font-variant-numeric:normal;font-variant-caps:normal;font-feature-settings:normal" d="m43.137 158.61h2.7124v-3.4455c1.6861 2.4925 4.5451 3.922 7.844 3.922 6.0479 0 10.593-4.5084 10.593-10.52 0-5.9013-4.6184-10.483-10.556-10.483-3.3722 0-6.1579 1.3928-7.8806 3.922v-10.483h-2.7124zm10.52-18.034c4.5084 0 7.8806 3.4088 7.8806 7.9173 0 4.6184-3.4088 8.1005-7.9173 8.1005-2.2359 0-4.0686-0.76973-5.6447-2.3825s-2.3092-3.4455-2.3092-5.718c0-4.4351 3.5188-7.9173 7.9906-7.9173z"/>
  <path style="font-variant-ligatures:normal;font-variant-numeric:normal;font-variant-caps:normal;font-feature-settings:normal" d="m68.121 158.61h2.7124v-11.033c0-2.2359 0.29323-3.4088 1.063-4.5451 1.063-1.5395 2.9323-2.4558 5.0583-2.4558 1.9793 0 3.7754 0.80639 4.875 2.1626 0.953 1.2462 1.3195 2.7124 1.3195 5.3515v10.52h2.7124v-10.52c0-3.3722-0.4765-5.1682-1.7594-6.891-1.5761-1.9793-3.9953-3.1156-6.8176-3.1156-2.6391 0-4.765 1.0263-6.4511 3.0789v-2.6024h-2.7124z"/>
  <path style="font-variant-ligatures:normal;font-variant-numeric:normal;font-variant-caps:normal;font-feature-settings:normal" d="m90.457 158.61h2.7124v-20.05h-2.7124zm0-22.469h2.7124v-4.6184h-2.7124z"/>
  <path style="font-variant-ligatures:normal;font-variant-numeric:normal;font-variant-caps:normal;font-feature-settings:normal" d="m100.22 158.61h2.7124v-17.594h4.5084v-2.4558h-4.5084v-7.0376h-2.7124v7.0376h-4.3252v2.4558h4.3252z"/>
  <path style="font-variant-ligatures:normal;font-variant-numeric:normal;font-variant-caps:normal;font-feature-settings:normal" d="m108.57 152.71c0.0367 3.8853 2.6024 6.3778 6.4511 6.3778 3.5921 0 6.1212-2.5658 6.1212-6.2312 0-2.4558-1.1363-4.1419-3.4821-5.1316-3.0423-1.2462-3.1889-1.3195-3.7754-1.6128-1.2462-0.62312-1.8327-1.4662-1.8327-2.6391 0-1.6128 1.2829-2.8957 2.8957-2.8957 1.7594 0 2.7857 1.0263 2.9323 2.9323h2.749c-0.10996-3.2256-2.4192-5.4248-5.6447-5.4248-3.2622 0-5.6814 2.3825-5.6814 5.6447 0 1.4295 0.51316 2.6757 1.5028 3.5921 0.84304 0.76973 0.87969 0.76973 3.702 1.9427 1.2096 0.4765 2.0893 0.91635 2.6024 1.2462 0.80639 0.54981 1.2829 1.5028 1.2829 2.6024 0 2.016-1.4295 3.4821-3.3722 3.4821-2.2359 0-3.6288-1.4295-3.7754-3.8853z"/>
 </g>
</svg>
